<svg
  version="1.1"
  viewBox="0.0 0.0 288.6115485564304 288.0"
  fill="none"
  stroke="none"
  stroke-linecap="square"
  stroke-miterlimit="10"
  xmlns:xlink="http://www.w3.org/1999/xlink"
  xmlns="http://www.w3.org/2000/svg"
>
  <g>
    <path
      fill="#028090"
      d="m195.35522 15.370446l42.278503 0l42.278503 73.895454l-42.278503 73.89545l-42.278503 0l42.278503 -73.89545z"
      fill-rule="evenodd"
    ></path>
    <path
      stroke="#00A896"
      stroke-width="2.0"
      stroke-linejoin="round"
      stroke-linecap="butt"
      d="m195.35522 15.370446l42.278503 0l42.278503 73.895454l-42.278503 73.89545l-42.278503 0l42.278503 -73.89545z"
      fill-rule="evenodd"
    ></path>
    <path
      fill="#00A896"
      d="m143.9993 15.3697405l42.278503 0l42.278503 73.89545l-42.278503 73.895454l-42.278503 0l42.278503 -73.895454z"
      fill-rule="evenodd"
    ></path>
    <path
      stroke="#028090"
      stroke-width="2.0"
      stroke-linejoin="round"
      stroke-linecap="butt"
      d="m143.9993 15.3697405l42.278503 0l42.278503 73.89545l-42.278503 73.895454l-42.278503 0l42.278503 -73.895454z"
      fill-rule="evenodd"
    ></path>
    <path
      fill="#1E293B"
      d="m27.124279 231.35297l0 -33.59375l7.78125 0l0 33.59375l-7.78125 0zm25.102158 0l-14.5 -33.59375l8.40625 0l12.671875 29.75l-4.9375 0l12.859371 -29.75l7.71875 0l-14.531246 33.59375l-7.6875 0zm25.009945 0l0 -33.59375l6.4375 0l14.296875 23.703125l-3.40625 0l14.0625 -23.703125l6.390625 0l0.09375 33.59375l-7.296875 0l-0.046875 -22.421875l1.34375 0l-11.234375 18.875l-3.5 0l-11.484375 -18.875l1.640625 0l0 22.421875l-7.296875 0zm41.418213 0l14.984383 -33.59375l7.671875 0l15.03125 33.59375l-8.15625 0l-12.296875 -29.65625l3.078125 0l-12.343758 29.65625l-7.96875 0zm7.5 -7.203125l2.0625076 -5.90625l17.28125 0l2.109375 5.90625l-21.453133 0zm33.689964 7.203125l0 -33.59375l6.4375 0l19.8125 24.1875l-3.109375 0l0 -24.1875l7.671875 0l0 33.59375l-6.375 0l-19.875 -24.1875l3.109375 0l0 24.1875l-7.671875 0zm45.737198 0l0 -27.265625l-10.75 0l0 -6.328125l29.28125 0l0 6.328125l-10.75 0l0 27.265625l-7.78125 0zm38.54344 0.578125q-3.984375 0 -7.375 -1.296875q-3.375 -1.296875 -5.84375 -3.640625q-2.46875 -2.359375 -3.84375 -5.53125q-1.359375 -3.171875 -1.359375 -6.90625q0 -3.75 1.359375 -6.90625q1.375 -3.171875 3.859375 -5.515625q2.5 -2.359375 5.859375 -3.65625q3.359375 -1.296875 7.296875 -1.296875q3.984375 0 7.3125 1.296875q3.34375 1.296875 5.8124847 3.65625q2.484375 2.34375 3.875 5.484375q1.390625 3.140625 1.390625 6.9375q0 3.734375 -1.390625 6.9375q-1.390625 3.1875 -3.875 5.515625q-2.4687347 2.328125 -5.8124847 3.625q-3.328125 1.296875 -7.265625 1.296875zm-0.046875 -6.625q2.265625 0 4.15625 -0.765625q1.890625 -0.765625 3.328125 -2.203125q1.453125 -1.453125 2.234375 -3.421875q0.796875 -1.96875 0.796875 -4.359375q0 -2.40625 -0.796875 -4.375q-0.78125 -1.96875 -2.203125 -3.40625q-1.40625 -1.4375 -3.328125 -2.203125q-1.921875 -0.765625 -4.1875 -0.765625q-2.25 0 -4.15625 0.765625q-1.890625 0.765625 -3.328125 2.203125q-1.4375 1.4375 -2.234375 3.40625q-0.78125 1.96875 -0.78125 4.375q0 2.34375 0.78125 4.34375q0.796875 1.984375 2.203125 3.4375q1.421875 1.4375 3.34375 2.203125q1.921875 0.765625 4.171875 0.765625z"
      fill-rule="nonzero"
    ></path>
    <path
      fill="#00A896"
      d="m38.035835 263.70294q-1.578125 0 -2.921875 -0.53125q-1.34375 -0.53125 -2.328125 -1.484375q-0.96875 -0.96875 -1.515625 -2.265625q-0.546875 -1.296875 -0.546875 -2.84375q0 -1.5468597 0.546875 -2.8437347q0.546875 -1.296875 1.53125 -2.25q1.0 -0.96875 2.328125 -1.5q1.34375 -0.53125 2.921875 -0.53125q1.53125 0 2.859375 0.515625q1.34375 0.515625 2.265625 1.53125l-0.9375 0.9375q-0.859375 -0.875 -1.90625 -1.265625q-1.03125 -0.390625 -2.234375 -0.390625q-1.265625 0 -2.34375 0.4375q-1.078125 0.421875 -1.875 1.21875q-0.796875 0.78125 -1.25 1.828125q-0.453125 1.046875 -0.453125 2.3124847q0 1.265625 0.453125 2.3125q0.453125 1.046875 1.25 1.84375q0.796875 0.78125 1.875 1.21875q1.078125 0.421875 2.34375 0.421875q1.203125 0 2.234375 -0.390625q1.046875 -0.40625 1.90625 -1.28125l0.9375 0.9375q-0.921875 1.015625 -2.265625 1.546875q-1.328125 0.515625 -2.875 0.515625zm7.8049927 -0.125l0 -14.843735l1.421875 0l0 14.843735l-1.421875 0zm9.66124 0.09375q-1.53125 0 -2.75 -0.6875q-1.203125 -0.6875 -1.90625 -1.890625q-0.6875 -1.21875 -0.6875 -2.78125q0 -1.578125 0.6875 -2.7656097q0.703125 -1.203125 1.90625 -1.875q1.203125 -0.6875 2.75 -0.6875q1.546875 0 2.75 0.6875q1.21875 0.671875 1.90625 1.875q0.703125 1.1874847 0.703125 2.7656097q0 1.5625 -0.703125 2.78125q-0.6875 1.203125 -1.90625 1.890625q-1.21875 0.6875 -2.75 0.6875zm0 -1.25q1.140625 0 2.015625 -0.515625q0.875 -0.515625 1.390625 -1.4375q0.515625 -0.9375 0.515625 -2.15625q0 -1.234375 -0.515625 -2.15625q-0.515625 -0.92185974 -1.390625 -1.4218597q-0.875 -0.515625 -2.0 -0.515625q-1.125 0 -2.0 0.515625q-0.875 0.5 -1.40625 1.4218597q-0.515625 0.921875 -0.515625 2.15625q0 1.21875 0.515625 2.15625q0.53125 0.921875 1.40625 1.4375q0.875 0.515625 1.984375 0.515625zm12.586868 1.25q-1.328125 0 -2.328125 -0.5q-1.0 -0.5 -1.5625 -1.5q-0.546875 -1.0 -0.546875 -2.5l0 -6.0937347l1.421875 0l0 5.9374847q0 1.6875 0.828125 2.53125q0.828125 0.84375 2.328125 0.84375q1.109375 0 1.921875 -0.4375q0.8125 -0.453125 1.234375 -1.3125q0.4375 -0.859375 0.4375 -2.0625l0 -5.4999847l1.40625 0l0 10.499985l-1.359375 0l0 -2.875l0.21875 0.515625q-0.5 1.15625 -1.546875 1.8125q-1.046875 0.640625 -2.453125 0.640625zm13.283737 0q-1.5 0 -2.6875 -0.671875q-1.1875 -0.6875 -1.875 -1.890625q-0.671875 -1.21875 -0.671875 -2.796875q0 -1.59375 0.671875 -2.7968597q0.6875 -1.203125 1.875 -1.859375q1.1875 -0.671875 2.6875 -0.671875q1.390625 0 2.46875 0.625q1.09375 0.609375 1.734375 1.796875q0.65625 1.1874847 0.65625 2.9062347q0 1.703125 -0.640625 2.90625q-0.640625 1.203125 -1.734375 1.828125q-1.078125 0.625 -2.484375 0.625zm0.109375 -1.25q1.109375 0 2.0 -0.515625q0.890625 -0.515625 1.40625 -1.4375q0.515625 -0.9375 0.515625 -2.15625q0 -1.234375 -0.515625 -2.15625q-0.515625 -0.92185974 -1.40625 -1.4218597q-0.890625 -0.515625 -2.0 -0.515625q-1.109375 0 -1.984375 0.515625q-0.875 0.5 -1.40625 1.4218597q-0.515625 0.921875 -0.515625 2.15625q0 1.21875 0.515625 2.15625q0.53125 0.921875 1.40625 1.4375q0.875 0.515625 1.984375 0.515625zm3.953125 1.15625l0 -3.15625l0.140625 -2.125l-0.203125 -2.125l0 -7.4374847l1.421875 0l0 14.843735l-1.359375 0zm20.878098 0.21875l-7.71875 -7.9374847q-0.703125 -0.734375 -1.109375 -1.28125q-0.40625 -0.5625 -0.578125 -1.0625q-0.15625 -0.5 -0.15625 -1.0625q0 -0.890625 0.421875 -1.5625q0.4375 -0.671875 1.234375 -1.03125q0.8125 -0.375 1.890625 -0.375q0.984375 0 1.703125 0.328125q0.734375 0.328125 1.140625 0.953125q0.421875 0.609375 0.421875 1.5q0 0.75 -0.375 1.421875q-0.375 0.65625 -1.21875 1.28125q-0.828125 0.625 -2.265625 1.4062347q-1.265625 0.703125 -2.0 1.28125q-0.734375 0.578125 -1.03125 1.140625q-0.296875 0.546875 -0.296875 1.203125q0 0.765625 0.421875 1.328125q0.4375 0.5625 1.203125 0.875q0.78125 0.3125 1.78125 0.3125q1.390625 0 2.484375 -0.578125q1.109375 -0.578125 1.859375 -1.75q0.75 -1.1875 1.09375 -2.96875l1.140625 0.359375q-0.390625 2.0 -1.3125 3.359375q-0.90625 1.359375 -2.265625 2.0625q-1.359375 0.703125 -3.078125 0.703125q-1.375 0 -2.4375 -0.453125q-1.046875 -0.453125 -1.65625 -1.25q-0.609375 -0.796875 -0.609375 -1.859375q0 -0.90625 0.390625 -1.65625q0.40625 -0.75 1.296875 -1.46875q0.890625 -0.734375 2.375 -1.5312347q1.25 -0.703125 1.953125 -1.203125q0.71875 -0.515625 1.015625 -0.984375q0.296875 -0.484375 0.296875 -1.015625q0 -0.78125 -0.53125 -1.265625q-0.515625 -0.484375 -1.5 -0.484375q-1.0625 0 -1.640625 0.53125q-0.578125 0.53125 -0.578125 1.375q0 0.421875 0.125 0.8125q0.125 0.375 0.5 0.828125q0.375 0.453125 1.03125 1.15625l7.40625 7.6249847l-0.828125 0.9375zm8.604355 -0.21875l0 -13.999985l5.703125 0q2.234375 0 3.921875 0.890625q1.6875 0.890625 2.625 2.46875q0.9531326 1.578125 0.9531326 3.6406097q0 2.0625 -0.9531326 3.640625q-0.9375 1.578125 -2.625 2.46875q-1.6875 0.890625 -3.921875 0.890625l-5.703125 0zm1.484375 -1.28125l4.140625 0q1.859375 0 3.21875 -0.71875q1.375 -0.734375 2.125 -2.015625q0.765625 -1.296875 0.765625 -2.984375q0 -1.7031097 -0.765625 -2.9843597q-0.75 -1.28125 -2.125 -2.0q-1.359375 -0.734375 -3.21875 -0.734375l-4.140625 0l0 11.437485zm21.316872 1.28125l0 -2.3125l-0.0625 -0.390625l0 -3.875q0 -1.3437347 -0.75 -2.0624847q-0.75 -0.71875 -2.234375 -0.71875q-1.015625 0 -1.9375 0.34375q-0.921875 0.328125 -1.5625 0.890625l-0.640625 -1.0625q0.8125 -0.671875 1.921875 -1.03125q1.125 -0.375 2.359375 -0.375q2.046875 0 3.15625 1.015625q1.109375 1.0 1.109375 3.0624847l0 6.515625l-1.359375 0zm-3.625 0.09375q-1.171875 0 -2.046875 -0.390625q-0.875 -0.390625 -1.34375 -1.078125q-0.453125 -0.6875 -0.453125 -1.578125q0 -0.828125 0.390625 -1.5q0.390625 -0.671875 1.28125 -1.078125q0.890625 -0.40625 2.390625 -0.40625l3.625 0l0 1.0625l-3.578125 0q-1.515625 0 -2.109375 0.546875q-0.59375 0.53125 -0.59375 1.328125q0 0.90625 0.703125 1.453125q0.703125 0.53125 1.953125 0.53125q1.203125 0 2.0625 -0.546875q0.875 -0.5625 1.28125 -1.59375l0.3125 0.96875q-0.390625 1.046875 -1.390625 1.671875q-0.984375 0.609375 -2.484375 0.609375zm12.159363 0q-1.484375 0 -2.28125 -0.796875q-0.796875 -0.796875 -0.796875 -2.25l0 -9.85936l1.421875 0l0 9.76561q0 0.921875 0.46875 1.421875q0.46875 0.5 1.34375 0.5q0.953125 0 1.5625 -0.53125l0.5 1.015625q-0.421875 0.375 -1.015625 0.5625q-0.578125 0.171875 -1.203125 0.171875zm-4.953125 -9.406235l0 -1.1875l6.5 0l0 1.1875l-6.5 0zm9.76062 9.312485l0 -10.499985l1.421875 0l0 10.499985l-1.421875 0zm0.71875 -12.812485q-0.4375 0 -0.75 -0.296875q-0.296875 -0.3125 -0.296875 -0.734375q0 -0.421875 0.296875 -0.703125q0.3125 -0.296875 0.75 -0.296875q0.4375 0 0.734375 0.28125q0.3125 0.28125 0.3125 0.703125q0 0.4375 -0.296875 0.75q-0.296875 0.296875 -0.75 0.296875zm8.94249 12.906235q-1.53125 0 -2.75 -0.6875q-1.203125 -0.6875 -1.90625 -1.890625q-0.6875 -1.21875 -0.6875 -2.78125q0 -1.578125 0.6875 -2.7656097q0.703125 -1.203125 1.90625 -1.875q1.203125 -0.6875 2.75 -0.6875q1.546875 0 2.75 0.6875q1.21875 0.671875 1.90625 1.875q0.703125 1.1874847 0.703125 2.7656097q0 1.5625 -0.703125 2.78125q-0.6875 1.203125 -1.90625 1.890625q-1.21875 0.6875 -2.75 0.6875zm0 -1.25q1.140625 0 2.015625 -0.515625q0.875 -0.515625 1.390625 -1.4375q0.515625 -0.9375 0.515625 -2.15625q0 -1.234375 -0.515625 -2.15625q-0.515625 -0.92185974 -1.390625 -1.4218597q-0.875 -0.515625 -2.0 -0.515625q-1.125 0 -2.0 0.515625q-0.875 0.5 -1.40625 1.4218597q-0.515625 0.921875 -0.515625 2.15625q0 1.21875 0.515625 2.15625q0.53125 0.921875 1.40625 1.4375q0.875 0.515625 1.984375 0.515625zm8.258743 1.15625l0 -10.499985l1.359375 0l0 2.875l-0.21875 -0.53125q0.5 -1.140625 1.59375 -1.78125q1.09375 -0.65625 2.625 -0.65625q1.28125 0 2.25 0.484375q0.96875 0.484375 1.515625 1.484375q0.546875 1.0 0.546875 2.5312347l0 6.09375l-1.421875 0l0 -5.953125q0 -1.6718597 -0.828125 -2.5156097q-0.828125 -0.84375 -2.328125 -0.84375q-1.125 0 -1.953125 0.453125q-0.828125 0.4375 -1.28125 1.2968597q-0.4375 0.84375 -0.4375 2.046875l0 5.515625l-1.421875 0zm16.332489 0.09375q-1.296875 0 -2.453125 -0.359375q-1.15625 -0.375 -1.828125 -0.9375l0.640625 -1.109375q0.640625 0.46875 1.640625 0.828125q1.0 0.34375 2.109375 0.34375q1.5 0 2.15625 -0.46875q0.65623474 -0.46875 0.65623474 -1.25q0 -0.578125 -0.375 -0.90625q-0.35935974 -0.328125 -0.96873474 -0.5q-0.59375 -0.171875 -1.34375 -0.296875q-0.734375 -0.125 -1.46875 -0.28125q-0.71875 -0.15625 -1.328125 -0.46875q-0.59375 -0.3125 -0.96875 -0.84375q-0.359375 -0.546875 -0.359375 -1.4374847q0 -0.859375 0.46875 -1.53125q0.484375 -0.6875 1.40625 -1.078125q0.9375 -0.390625 2.28125 -0.390625q1.015625 0 2.0312347 0.265625q1.03125 0.265625 1.6875 0.703125l-0.625 1.140625q-0.703125 -0.46875 -1.4999847 -0.671875q-0.796875 -0.21875 -1.59375 -0.21875q-1.421875 0 -2.09375 0.484375q-0.671875 0.484375 -0.671875 1.25q0 0.59373474 0.375 0.93748474q0.375 0.34375 0.984375 0.53125q0.609375 0.1875 1.328125 0.3125q0.734375 0.125 1.46875 0.296875q0.73435974 0.15625 1.3437347 0.453125q0.609375 0.296875 0.96875 0.828125q0.375 0.515625 0.375 1.375q0 0.921875 -0.515625 1.59375q-0.5 0.671875 -1.46875 1.046875q-0.96873474 0.359375 -2.3593597 0.359375zm12.424988 -0.03125q-1.53125 0 -2.75 -0.6875q-1.203125 -0.6875 -1.90625 -1.890625q-0.6875 -1.21875 -0.6875 -2.78125q0 -1.578125 0.6875 -2.7656097q0.703125 -1.203125 1.90625 -1.875q1.203125 -0.6875 2.75 -0.6875q1.546875 0 2.75 0.6875q1.21875 0.671875 1.90625 1.875q0.703125 1.1874847 0.703125 2.7656097q0 1.5625 -0.703125 2.78125q-0.6875 1.203125 -1.90625 1.890625q-1.21875 0.6875 -2.75 0.6875zm0 -1.25q1.140625 0 2.015625 -0.515625q0.875 -0.515625 1.390625 -1.4375q0.515625 -0.9375 0.515625 -2.15625q0 -1.234375 -0.515625 -2.15625q-0.515625 -0.92185974 -1.390625 -1.4218597q-0.875 -0.515625 -2.0 -0.515625q-1.125 0 -2.0 0.515625q-0.875 0.5 -1.40625 1.4218597q-0.515625 0.921875 -0.515625 2.15625q0 1.21875 0.515625 2.15625q0.53125 0.921875 1.40625 1.4375q0.875 0.515625 1.984375 0.515625z"
      fill-rule="nonzero"
    ></path>
  </g>
</svg>
